<svg xmlns="http://www.w3.org/2000/svg" viewBox="0 0 512 512">
  <defs>
    <linearGradient id="featherGrad" x1="0%" y1="0%" x2="100%" y2="100%">
      <stop offset="0%" stop-color="#0e7a0d"/>
      <stop offset="50%" stop-color="#14a098"/>
      <stop offset="100%" stop-color="#022c7a"/>
    </linearGradient>
    <linearGradient id="eyeGrad" x1="0%" y1="0%" x2="100%" y2="100%">
      <stop offset="0%" stop-color="#f5c71a"/>
      <stop offset="50%" stop-color="#1a5ff5"/>
      <stop offset="100%" stop-color="#000000"/>
    </linearGradient>
  </defs>
  
  <!-- Paper Background -->
  <rect x="80" y="60" width="352" height="400" rx="16" fill="#fdfaf3" stroke="#e0d5c1" stroke-width="8"/>
  <line x1="120" y1="140" x2="392" y2="140" stroke="#e0d5c1" stroke-width="4" stroke-dasharray="8 8"/>
  <line x1="120" y1="200" x2="392" y2="200" stroke="#e0d5c1" stroke-width="4" stroke-dasharray="8 8"/>
  <line x1="120" y1="260" x2="392" y2="260" stroke="#e0d5c1" stroke-width="4" stroke-dasharray="8 8"/>
  <line x1="120" y1="320" x2="392" y2="320" stroke="#e0d5c1" stroke-width="4" stroke-dasharray="8 8"/>

  <!-- Peacock Feather Quill -->
  <g transform="translate(40, -40) rotate(15, 256, 256)">
    <!-- Stem -->
    <path d="M 200 420 Q 256 300 350 150" fill="none" stroke="#e6e6e6" stroke-width="6" stroke-linecap="round"/>
    
    <!-- Feather Barbs -->
    <path d="M 350 150 Q 280 120 220 200 Q 180 280 200 420 Q 260 380 320 300 Q 380 220 350 150 Z" fill="url(#featherGrad)" opacity="0.9"/>
    <path d="M 350 150 Q 420 180 360 280 Q 300 350 200 420 Q 230 330 300 240 Q 360 180 350 150 Z" fill="url(#featherGrad)" opacity="0.7"/>
    
    <!-- Feather Eye -->
    <ellipse cx="310" cy="210" rx="35" ry="55" transform="rotate(45, 310, 210)" fill="url(#eyeGrad)"/>
    <ellipse cx="310" cy="210" rx="15" ry="25" transform="rotate(45, 310, 210)" fill="#061244"/>
    
    <!-- Quill Nib -->
    <path d="M 197 420 L 180 470 L 203 420 Z" fill="#b0a28f"/>
    <path d="M 180 470 L 190 460 L 192 480 Z" fill="#333"/>
  </g>
</svg>